<?xml version="1.0" encoding="UTF-8"?>
<svg width="50px" height="40px" viewBox="0 0 50 40" version="1.1" xmlns="http://www.w3.org/2000/svg" xmlns:xlink="http://www.w3.org/1999/xlink">
    <title>Picture Preview</title>
    <g id="UIKIT" stroke="none" stroke-width="1" fill="none" fill-rule="evenodd">
        <g transform="translate(-875, -369)" fill="#BBBBBB" id="Image/Picture-Preview">
            <g transform="translate(875, 369)">
                <g id="Group" transform="translate(-0, 0)">
                    <path d="M45.7179143,0 C47.9086829,0.000792964968 49.610994,1.45022477 49.9546848,3.6121333 C49.9890539,3.82827207 49.9916576,4.05066064 49.9916576,4.26992431 L49.9914663,25.2394166 C49.9925279,28.7343449 49.9949592,32.2292538 49.9999948,35.7241049 C50.003114,37.7756004 48.6111661,39.4661701 46.7828351,39.8791775 C46.4308124,39.9583415 46.0621259,39.9942779 45.7012505,39.9947987 L35.3460022,39.9998325 L4.25734461,39.9997884 C2.15249868,39.9989652 0.460081748,38.6057816 0.067441019,36.5449114 C0.0205740885,36.3006486 0.00286880367,36.0475318 0.00286880367,35.7985816 C-5.9221663e-05,25.2681965 -0.00129714571,14.7378114 0.00182731633,4.20794717 C0.00234806,2.10957823 1.47813563,0.385155406 3.54861247,0.050270515 C3.78659233,0.0117301076 4.0318626,0.00235541392 4.2740084,0.00235541392 C18.0888173,0 31.9036262,0 45.7179143,0 Z M35.3014786,3.3377282 L25.0032518,3.3376631 C18.1377672,3.3376631 11.2722826,3.3376631 4.40679804,3.33818392 C4.30056633,3.33818392 4.19381388,3.33610065 4.08862366,3.34651698 C3.74284986,3.38037004 3.44238076,3.6376533 3.36635218,3.97670472 C3.33719054,4.10847125 3.33302459,4.24752921 3.33302459,4.38294145 C3.33146236,14.7919763 3.33146236,25.2004904 3.33146236,35.6090045 C3.33146236,36.3574175 3.64495005,36.6683449 4.39846614,36.6683449 C18.1372464,36.6688657 31.8760268,36.6662616 45.6148071,36.6756369 C46.2204319,36.6761571 46.6719167,36.339189 46.670877,35.6168167 L46.6611115,19.992783 L46.6615018,4.36835859 C46.6615018,4.28502798 46.6635848,4.20117655 46.6583774,4.11784594 C46.6349439,3.73452513 46.321977,3.39807779 45.9407926,3.35068351 C45.828312,3.33662147 45.7137484,3.33818392 45.5997055,3.33818392 L35.3014786,3.3377282 Z M32.859085,10.9090909 C32.9510043,10.9985269 33.0103903,11.0537668 33.0671943,11.1116372 C36.5306913,14.6390993 39.9931554,18.1670875 43.4597508,21.6913931 C43.5867853,21.8208123 43.6368761,21.947601 43.6363636,22.131734 L43.6321644,27.7414773 L43.6322285,33.6363636 L7.28487553,33.6363636 C7.28074433,33.5485059 7.27351473,33.4674874 7.27351473,33.3859428 C7.27272727,31.8607955 7.27041632,30.3356481 7.27867873,28.8110269 C7.27919513,28.6963384 7.33135156,28.5516625 7.40984441,28.4722222 C10.0755029,25.7470539 12.7473581,23.0281987 15.418697,20.3082912 C15.454845,20.2714646 15.4951242,20.2383207 15.5416003,20.1957071 C16.9126431,21.5940657 18.2780056,22.9861111 19.6444008,24.3792088 C24.0534267,19.8853114 28.4479935,15.4050926 32.859085,10.9090909 Z M11.3834236,6.36363636 C14.1551587,6.37462585 16.3760902,8.61767683 16.3636364,11.3935958 C16.3505563,14.1528301 14.1035697,16.3791964 11.3469465,16.3636364 C8.58042246,16.3484339 6.35532211,14.1126825 6.36363636,11.357098 C6.37199733,8.58326461 8.61429401,6.35272716 11.3834236,6.36363636 Z" id="Combined-Shape"></path>
                </g>
            </g>
        </g>
    </g>
</svg>