<?xml version="1.0" encoding="UTF-8"?>
<svg width="20px" height="20px" viewBox="0 0 20 20" version="1.1" xmlns="http://www.w3.org/2000/svg" xmlns:xlink="http://www.w3.org/1999/xlink">
    <title>93391C6F-0167-4F6D-87C7-87401179070E</title>
    <g id="5.3提現" stroke="none" stroke-width="1" fill="none" fill-rule="evenodd">
        <g id="5.3.8.1-數字貨幣提現" transform="translate(-24.000000, -152.000000)">
            <g id="提現/card/address" transform="translate(0.000000, 132.000000)">
                <g id="Group" transform="translate(12.000000, 8.000000)">
                    <g id="M15" transform="translate(12.000000, 12.000000)">
                        <path d="M16,1 C17.6568542,1 19,2.34314575 19,4 L19,16 C19,17.6568542 17.6568542,19 16,19 L4,19 C2.34314575,19 1,17.6568542 1,16 L1,4 C1,2.34314575 2.34314575,1 4,1 L16,1 Z M16,2 L4,2 C2.9456382,2 2.08183488,2.81587779 2.00548574,3.85073766 L2,4 L2,16 C2,17.0543618 2.81587779,17.9181651 3.85073766,17.9945143 L4,18 L16,18 C17.0543618,18 17.9181651,17.1841222 17.9945143,16.1492623 L18,16 L18,4 C18,2.9456382 17.1841222,2.08183488 16.1492623,2.00548574 L16,2 Z" id="Rectangle" fill="#999999"></path>
                        <path d="M10.5542612,11.1111151 C10.7034292,11.1124857 10.8459327,11.1714778 10.9503751,11.2751315 C11.0548174,11.3787853 11.1126289,11.5185956 11.1110723,11.6637593 L11.1111111,16.109851 C11.1115863,16.1699046 11.1025374,16.2290304 11.0848048,16.2850912 C11.0824078,16.2935954 11.07941,16.3020924 11.0762059,16.3104927 C11.0498973,16.3813683 11.0095395,16.4466163 10.9568088,16.5016996 C10.8568455,16.6061231 10.720606,16.6654622 10.578064,16.6666621 L9.44149568,16.6666621 C9.29666616,16.6685668 9.15704194,16.6112236 9.05338731,16.5072673 C8.94973269,16.4033109 8.89055343,16.261272 8.88888889,16.1124468 C8.89022206,15.9632789 8.94921416,15.8207754 9.05286792,15.716333 C9.15652169,15.6118906 9.29633204,15.5540792 9.44149568,15.5556358 L9.99988889,15.5551111 L10.000046,11.6637593 C9.99814126,11.5189298 10.0554845,11.3793055 10.1594408,11.2756509 C10.2633971,11.1719963 10.4050932,11.1098193 10.5542612,11.1111151 Z M15.7111111,12.2222222 C16.2388499,12.2222222 16.6666667,12.650039 16.6666667,13.1777778 L16.6666667,15.7111111 C16.6666667,16.2388499 16.2388499,16.6666667 15.7111111,16.6666667 L13.1777778,16.6666667 C12.650039,16.6666667 12.2222222,16.2388499 12.2222222,15.7111111 L12.2222222,13.1777778 C12.2222222,12.650039 12.650039,12.2222222 13.1777778,12.2222222 L15.7111111,12.2222222 Z M6.82222222,12.2222222 C7.34996098,12.2222222 7.77777778,12.650039 7.77777778,13.1777778 L7.77777778,15.7111111 C7.77777778,16.2388499 7.34996098,16.6666667 6.82222222,16.6666667 L4.28888889,16.6666667 C3.76115013,16.6666667 3.33333333,16.2388499 3.33333333,15.7111111 L3.33333333,13.1777778 C3.33333333,12.650039 3.76115013,12.2222222 4.28888889,12.2222222 L6.82222222,12.2222222 Z M15.5555556,13.3333333 L13.3333333,13.3333333 L13.3333333,15.5555556 L15.5555556,15.5555556 L15.5555556,13.3333333 Z M6.66666667,13.3333333 L4.44444444,13.3333333 L4.44444444,15.5555556 L6.66666667,15.5555556 L6.66666667,13.3333333 Z M13.8918193,9.44448328 C14.0425557,9.4426801 14.179754,9.50378857 14.2797472,9.6040705 C14.3881508,9.71207725 14.4459622,9.8518876 14.4444056,9.99705123 L14.4441111,10.5554444 L16.1140415,10.5555944 C16.4155143,10.551988 16.6628347,10.8000283 16.6666667,11.1098096 C16.6678256,11.2562818 16.6123277,11.3972348 16.5123644,11.5016583 C16.412401,11.6060817 16.2761616,11.6654208 16.1336196,11.6666207 L13.8859401,11.6666207 C13.8391759,11.6672357 13.7929544,11.6616736 13.7483112,11.6503597 C13.6548189,11.6264372 13.5683669,11.5793986 13.4983417,11.5123644 C13.3939183,11.412401 13.3345792,11.2761616 13.3333793,11.1336196 L13.3331111,10.5554444 L11.6637179,10.5555096 C11.5188884,10.5574143 11.3792642,10.5000711 11.2756095,10.3961148 C11.1719549,10.2921584 11.1127757,10.1501195 11.1111111,10.0012944 C11.1124443,9.85212638 11.1714364,9.70962288 11.2750901,9.6051805 C11.3787439,9.50073813 11.5185543,9.44292668 11.6637179,9.44448328 L13.8918193,9.44448328 Z M11.1098168,3.88888889 C11.2589847,3.89022206 11.4014882,3.94921416 11.5059306,4.05286792 C11.610373,4.15652169 11.6681844,4.29633204 11.6666278,4.44149568 L11.6666278,6.66959708 C11.6674541,6.7386687 11.6550706,6.80489768 11.6317614,6.8660069 C11.6054529,6.9368825 11.565095,7.00213046 11.5123644,7.05721382 C11.412401,7.16163723 11.2761616,7.22097638 11.1336196,7.22217624 L9.44422222,7.22184751 L9.44444444,9.9986985 C9.44491962,10.0587521 9.43587077,10.1178779 9.41813814,10.1739387 L9.40953919,10.1993402 C9.38323067,10.2702158 9.34287279,10.3354638 9.29014214,10.3905471 C9.19017883,10.4949706 9.05393938,10.5543097 8.91139737,10.5555096 L7.77482901,10.5555096 C7.62999949,10.5574143 7.49037527,10.5000711 7.38672065,10.3961148 C7.28306602,10.2921584 7.22388677,10.1501195 7.22222222,10.0012944 C7.2235554,9.85212638 7.28254749,9.70962288 7.38620126,9.6051805 C7.48985502,9.50073813 7.62966537,9.44292668 7.77482901,9.44448328 L8.33322222,9.44384751 L8.33337931,6.6637179 C8.33147459,6.51888838 8.38881779,6.37926416 8.49277412,6.27560954 L8.52596534,6.24500905 L8.54922222,6.22684751 L8.5621375,6.21594792 C8.60781906,6.18238596 8.65812177,6.15635995 8.71119487,6.13863517 C8.76923565,6.11962694 8.82714885,6.11051952 8.88594012,6.11114994 L10.5552222,6.11084751 L10.5556015,4.44149568 C10.5536968,4.29666616 10.61104,4.15704194 10.7149963,4.05338731 C10.8189527,3.94973269 10.9606488,3.88755572 11.1098168,3.88888889 Z M6.11404152,9.44448328 C6.41551433,9.44087692 6.66283472,9.68891716 6.66666667,9.9986985 C6.66782563,10.1451706 6.61232767,10.2861237 6.51236436,10.3905471 C6.41240105,10.4949706 6.2761616,10.5543097 6.13361959,10.5555096 L3.88594012,10.5555096 C3.7411106,10.5574143 3.60148638,10.5000711 3.49783176,10.3961148 C3.39417713,10.2921584 3.33499788,10.1501195 3.33333333,10.0012944 C3.33466651,9.85212638 3.3936586,9.70962288 3.49731237,9.6051805 C3.60096613,9.50073813 3.74077648,9.44292668 3.88594012,9.44448328 L6.11404152,9.44448328 Z M15.7111111,3.33333333 C16.2388499,3.33333333 16.6666667,3.76115013 16.6666667,4.28888889 L16.6666667,6.82222222 C16.6666667,7.34996098 16.2388499,7.77777778 15.7111111,7.77777778 L13.1777778,7.77777778 C12.650039,7.77777778 12.2222222,7.34996098 12.2222222,6.82222222 L12.2222222,4.28888889 C12.2222222,3.76115013 12.650039,3.33333333 13.1777778,3.33333333 L15.7111111,3.33333333 Z M15.5555556,4.44444444 L13.3333333,4.44444444 L13.3333333,6.66666667 L15.5555556,6.66666667 L15.5555556,4.44444444 Z" id="Combined-Shape" fill="#999999"></path>
                        <path d="M6.82222222,3.33333333 C7.34996098,3.33333333 7.77777778,3.76115013 7.77777778,4.28888889 L7.77777778,6.82222222 C7.77777778,7.34996098 7.34996098,7.77777778 6.82222222,7.77777778 L4.28888889,7.77777778 C3.76115013,7.77777778 3.33333333,7.34996098 3.33333333,6.82222222 L3.33333333,4.28888889 C3.33333333,3.76115013 3.76115013,3.33333333 4.28888889,3.33333333 L6.82222222,3.33333333 Z M6.66666667,4.44444444 L4.44444444,4.44444444 L4.44444444,6.66666667 L6.66666667,6.66666667 L6.66666667,4.44444444 Z" id="Rectangle" fill="#4C9EEA"></path>
                    </g>
                </g>
            </g>
        </g>
    </g>
</svg>