<?xml version="1.0" encoding="UTF-8"?>
<svg fill="#FFF" width="18px" height="18px" viewBox="0 0 20 20" version="1.1" xmlns="http://www.w3.org/2000/svg" xmlns:xlink="http://www.w3.org/1999/xlink">
    <path d="M15.8047379,4.19526215 C16.0450605,4.43558479 16.0635469,4.81373882 15.8601969,5.0752663 L15.8047379,5.13807119 L10.943,10 L15.8047379,14.8619288 C16.0650874,15.1222783 16.0650874,15.5443883 15.8047379,15.8047379 C15.5644152,16.0450605 15.1862612,16.0635469 14.9247337,15.8601969 L14.8619288,15.8047379 L10,10.943 L5.13807119,15.8047379 C4.87772166,16.0650874 4.45561167,16.0650874 4.19526215,15.8047379 C3.9549395,15.5644152 3.93645315,15.1862612 4.13980307,14.9247337 L4.19526215,14.8619288 L9.057,10 L4.19526215,5.13807119 C3.93491262,4.87772166 3.93491262,4.45561167 4.19526215,4.19526215 C4.43558479,3.9549395 4.81373882,3.93645315 5.0752663,4.13980307 L5.13807119,4.19526215 L10,9.057 L14.8619288,4.19526215 C15.1222783,3.93491262 15.5443883,3.93491262 15.8047379,4.19526215 Z"></path>
</svg>