<svg width="18" height="18" viewBox="0 0 18 18" fill="none" xmlns="http://www.w3.org/2000/svg">
<path fill-rule="evenodd" clip-rule="evenodd" d="M6.04821 2.10929H11.9545V1.125H6.04821V2.10929ZM1.125 4.07788H16.875V3.09358H1.125V4.07788ZM9.98699 12.9378H10.9714V6.04778H9.98699V12.9378ZM7.03259 12.9378H8.01696V6.04778H7.03259V12.9378ZM13.9232 14.9064C13.9235 15.1673 13.8201 15.4177 13.6357 15.6023C13.4513 15.787 13.2011 15.8907 12.9401 15.8907H5.06512C4.52146 15.8907 4.08074 15.45 4.08074 14.9064V5.06348H3.09637V14.9064C3.09637 15.9936 3.97781 16.875 5.06512 16.875H12.9401C14.0274 16.875 14.9089 15.9936 14.9089 14.9064V5.06348H13.9245V14.9064H13.9232Z" fill="#999999"/>
</svg>
