<?xml version="1.0" encoding="UTF-8"?>
<svg width="20px" height="20px" viewBox="0 0 20 20" version="1.1" xmlns="http://www.w3.org/2000/svg" xmlns:xlink="http://www.w3.org/1999/xlink">
    <title>D1163F8B-F677-47B7-BE1E-9CE61E701BFF</title>
    <g id="ui-kit" stroke="none" stroke-width="1" fill="none" fill-rule="evenodd" fill-opacity="0.6">
        <g id="UI_kit_icon" transform="translate(-1319.000000, -724.000000)" fill="#3C3C43" fill-rule="nonzero">
            <g id="search_clear_light" transform="translate(1319.000000, 724.000000)">
                <path d="M10.204,18.4736328 C14.8358359,18.4736328 18.6707969,14.6386719 18.6707969,10.0068359 C18.6707969,5.38330078 14.8275352,1.54003906 10.1956992,1.54003906 C5.57216406,1.54003906 1.73720313,5.38330078 1.73720313,10.0068359 C1.73720313,14.6386719 5.58046484,18.4736328 10.204,18.4736328 Z M13.1756797,13.6923828 C12.9764609,13.6923828 12.8021445,13.609375 12.6776328,13.4848633 L10.1956992,10.9946289 L7.72206641,13.4848633 C7.59755469,13.6176758 7.42323828,13.6923828 7.22401953,13.6923828 C6.84218359,13.6923828 6.52675391,13.3769531 6.52675391,12.9868164 C6.52675391,12.7958984 6.60146094,12.6298828 6.73427344,12.5053711 L9.21620703,10.0151367 L6.73427344,7.52490234 C6.60146094,7.40869141 6.52675391,7.234375 6.52675391,7.04345703 C6.52675391,6.66162109 6.84218359,6.35449219 7.22401953,6.35449219 C7.42323828,6.35449219 7.58095313,6.42919922 7.70546484,6.56201172 L10.1956992,9.04394531 L12.7025352,6.55371094 C12.8436484,6.40429688 13.0013633,6.33789062 13.1839805,6.33789062 C13.5741172,6.33789062 13.8812461,6.65332031 13.8812461,7.03515625 C13.8812461,7.22607422 13.8231406,7.38378906 13.6737266,7.51660156 L11.1834922,10.0151367 L13.6654258,12.4887695 C13.7982383,12.621582 13.8729453,12.7875977 13.8729453,12.9868164 C13.8729453,13.3769531 13.5658164,13.6923828 13.1756797,13.6923828 Z"></path>
            </g>
        </g>
    </g>
</svg>