<?xml version="1.0" encoding="UTF-8"?>
<svg width="18px" height="18px" viewBox="0 0 18 18" version="1.1" xmlns="http://www.w3.org/2000/svg" xmlns:xlink="http://www.w3.org/1999/xlink">
    <title>86E6B493-687B-4A52-9140-B388B94F01D3</title>
    <g id="3.1-滾球簡易盤" stroke="none" stroke-width="1" fill="none" fill-rule="evenodd">
        <g id="3.1.1.1-進球推送-進球" transform="translate(-323.000000, -589.000000)" fill="#FFFFFF">
            <g id="Group" transform="translate(30.000000, 585.000000)">
                <g id="close-info" transform="translate(293.000000, 4.000000)">
                    <path d="M1.8009,9.0009 C1.8009,5.0244498 5.0244498,1.8009 9.0009,1.8009 C12.9773502,1.8009 16.2009,5.0244498 16.2009,9.0009 C16.2009,12.9773502 12.9773502,16.2009 9.0009,16.2009 C5.0244498,16.2009 1.8009,12.9773502 1.8009,9.0009 Z M2.5587,9.0009 C2.55820254,12.559266 5.44163452,15.4447124 9,15.4467 C12.5595656,15.446203 15.4449,12.5604656 15.4449,9.0009 C15.4434092,5.44268006 12.5582202,2.55910273 9,2.5596 C5.44262841,2.56009677 2.55879378,5.44352851 2.5578,9.0009 L2.5587,9.0009 Z M5.8653,9.4167 C5.65524548,9.39625693 5.50030174,9.21128534 5.517,9.0009 C5.50186701,8.79170346 5.65651137,8.60868766 5.8653,8.5887 L12.1392,8.5887 C12.3484701,8.60776554 12.5036225,8.79138263 12.4875,9.0009 C12.5051994,9.2116037 12.3497435,9.39718676 12.1392,9.4167 L5.8653,9.4167 Z"></path>
                </g>
            </g>
        </g>
    </g>
</svg>