<?xml version="1.0" encoding="UTF-8"?>
<svg width="20px" height="20px" viewBox="0 0 20 20" version="1.1" xmlns="http://www.w3.org/2000/svg" xmlns:xlink="http://www.w3.org/1999/xlink">
    <title>81F3A3D7-BE90-47A6-8F20-1B9F6F3CEFC2</title>
    <g id="5.10-銀行卡管理" stroke="none" stroke-width="1" fill="none" fill-rule="evenodd">
        <g id="5.10.0_無銀行卡" transform="translate(-30.000000, -161.000000)" fill="#333333">
            <g id="Group" transform="translate(15.000000, 149.000000)">
                <g id="add" transform="translate(15.000000, 12.000000)">
                    <path d="M10,2 C10.4142136,2 10.75,2.33578644 10.75,2.75 L10.75,9.25 L17.25,9.25 C17.6642136,9.25 18,9.58578644 18,10 C18,10.4142136 17.6642136,10.75 17.25,10.75 L10.75,10.75 L10.75,17.25 C10.75,17.6642136 10.4142136,18 10,18 C9.58578644,18 9.25,17.6642136 9.25,17.25 L9.25,10.749 L2.75,10.75 C2.33578644,10.75 2,10.4142136 2,10 C2,9.58578644 2.33578644,9.25 2.75,9.25 L9.25,9.249 L9.25,2.75 C9.25,2.33578644 9.58578644,2 10,2 Z"></path>
                </g>
            </g>
        </g>
    </g>
</svg>