<?xml version="1.0" encoding="UTF-8"?>
<svg width="20px" height="20px" viewBox="0 0 20 20" version="1.1" xmlns="http://www.w3.org/2000/svg" xmlns:xlink="http://www.w3.org/1999/xlink">
    <title>lock_lock@0.5x</title>
    <defs>
        <path d="M10.6499908,14.9111784 C10.6296647,15.2304633 10.3464251,15.4814566 9.99998993,15.4871769 C9.65355474,15.4814564 9.37031518,15.2304633 9.34998912,14.9111781 L9.34998912,13.500781 C8.94607613,13.2762658 8.70009482,12.8719995 8.70256941,12.4367832 C8.70256941,11.7463846 9.28412227,11.1871858 10.0025899,11.1871858 C10.7201908,11.1871858 11.3017487,11.7471846 11.3017487,12.4367832 C11.303352,12.8717898 11.0575971,13.2756889 10.6543257,13.5007807 L10.6499908,14.9111784 Z M16.5,9.96638179 L16.5,16.1439626 C16.4930667,17.1727605 15.6229322,18.002365 14.5526042,18.0000405 L5.45172914,18.0000405 C4.37966108,18.0047598 3.50692323,17.174362 3.5,16.1439626 L3.5,9.96638179 C3.50060909,9.47539105 3.70678829,9.00358735 4.07544372,8.64960684 C4.43507703,8.30379034 4.93239877,8.108947 5.4517122,8.11032867 L14.548254,8.11032867 C15.620339,8.10638568 16.4930768,8.93598394 16.5,9.96638179 Z M7.27432135,6.66799024 L7.27432135,7.30798891 L5.2333187,7.30798891 L5.2333187,6.66799024 C5.2333187,3.83199617 7.1079279,2 10.0025983,2 C12.8972688,2 14.7666644,3.83199617 14.7666644,6.66799024 L14.7666644,7.30798891 L12.7256618,7.30798891 L12.7256618,6.66799024 C12.7256618,5.58319251 12.3711946,3.76719943 10.0025983,3.76719943 C7.5412618,3.76719943 7.27432135,5.79439832 7.27432135,6.66799024 Z" id="path-1"></path>
    </defs>
    <g id="Symbols" stroke="none" stroke-width="1" fill="none" fill-rule="evenodd">
        <g id="lock_lock">
            <mask id="mask-2" fill="white">
                <use xlink:href="#path-1"></use>
            </mask>
            <use id="Mask" fill="#fff" xlink:href="#path-1"></use>
        </g>
    </g>
</svg>