<?xml version="1.0" encoding="UTF-8"?>
<svg width="20px" height="20px" viewBox="0 0 20 20" version="1.1" xmlns="http://www.w3.org/2000/svg" xmlns:xlink="http://www.w3.org/1999/xlink">
    <title>icon/paste@0.5x</title>
    <g id="Symbols" stroke="none" stroke-width="1" fill="none" fill-rule="evenodd">
        <g id="Icon/paste" fill="#999999">
            <path d="M13.5,2 C14.6045695,2 15.5,2.8954305 15.5,4 L15.5,6 L13.9,6 L13.9,4 C13.9,3.7790861 13.7209139,3.6 13.5,3.6 L4.5,3.6 C4.2790861,3.6 4.1,3.7790861 4.1,4 L4.1,16 C4.1,16.2209139 4.2790861,16.4 4.5,16.4 L5.5,16.4 L5.5,18 L4.5,18 C3.3954305,18 2.5,17.1045695 2.5,16 L2.5,4 C2.5,2.8954305 3.3954305,2 4.5,2 L13.5,2 Z M15.5,8 C16.6045695,8 17.5,8.8954305 17.5,10 L17.5,16 C17.5,17.1045695 16.6045695,18 15.5,18 L9.5,18 C8.3954305,18 7.5,17.1045695 7.5,16 L7.5,10 C7.5,8.8954305 8.3954305,8 9.5,8 L15.5,8 Z M15.5,9.6 L9.5,9.6 C9.2790861,9.6 9.1,9.7790861 9.1,10 L9.1,16 C9.1,16.2209139 9.2790861,16.4 9.5,16.4 L15.5,16.4 C15.7209139,16.4 15.9,16.2209139 15.9,16 L15.9,10 C15.9,9.7790861 15.7209139,9.6 15.5,9.6 Z" id="Combined-Shape"></path>
        </g>
    </g>
</svg>