<svg
  width="18px"
  height="18px"
  viewBox="0 0 24 24"
  xmlns="http://www.w3.org/2000/svg"
>
  <path
    d="M20.107 7.294a1.783 1.783 0 01.653 2.437l-.14.244a1.787 1.787 0 01-2.44.653l-.41-.236-1.873 3.24a6.985 6.985 0 01-.366 6.275l-.282.489a.798.798 0 01-1.09.291l-4.69-2.704L7.61 21.2a.798.798 0 01-1.381-.796l1.86-3.22L3.4 14.482a.796.796 0 01-.292-1.088l.282-.489A7 7 0 018.647 9.45l1.872-3.24-.41-.236a1.783 1.783 0 01-.653-2.437l.14-.245a1.787 1.787 0 012.44-.653l8.07 4.655zm-8.925-3.177a.078.078 0 00-.106.029l-.14.244a.078.078 0 00.027.106l.612.353c.706.407.947 1.308.54 2.013l-2.048 3.543c-.237.411-.658.683-1.13.73a5.292 5.292 0 00-3.885 2.329l4.092 2.36c.17.098.317.227.433.38.19.024.375.086.545.184l4.093 2.36a5.28 5.28 0 00.077-4.525 1.473 1.473 0 01.067-1.342l2.048-3.544a1.476 1.476 0 012.015-.54l.612.353a.078.078 0 00.106-.028l.14-.244a.078.078 0 00-.028-.106l-8.07-4.655z"
    fill="#FFF"
    fillRule="evenodd"
  />
</svg>