<?xml version="1.0" encoding="UTF-8"?>
<svg width="20px" height="20px" viewBox="0 0 20 20" version="1.1" xmlns="http://www.w3.org/2000/svg" xmlns:xlink="http://www.w3.org/1999/xlink">
    <title>icon/賽事取消</title>
    <g id="Symbols" stroke="none" stroke-width="1" fill="none" fill-rule="evenodd">
        <g id="icon/賽事取消" fill="#FFFFFF">
            <path d="M9.01387977,0 C13.9895375,0 18.0277595,4.11883774 18.0277595,9.19382539 C18.0277595,9.3122013 18.0255625,9.430057 18.0212076,9.54735234 C17.743244,9.29582545 17.441556,9.0702421 17.1199659,8.87407076 C17.0922175,8.09631169 16.9598906,7.34218193 16.7297393,6.63793668 L15.9184886,7.04246396 L15.3716628,8.1575343 C15.1028965,8.09467095 14.8271816,8.04987642 14.5458693,8.02450184 L15.0441501,6.97810005 L12.6194253,3.67751141 L9.91526352,3.67751141 L8.59021789,6.38049397 L10.7478979,8.95704979 C10.4698398,9.13674393 10.2075894,9.33880839 9.96369388,9.56069603 L8.11248186,7.3550545 L5.40830526,7.3550545 L4.08326597,10.7475734 L6.16547057,13.5884632 L8.06550729,13.1103975 C8.02235693,13.4006715 8,13.6977268 8,14 C8,14.0174819 8.00007478,14.0349464 8.00022404,14.0523932 L5.77787334,14.6273726 L4.7322648,16.2087101 C5.97617924,17.0085722 7.43643296,17.4682624 9.01386139,17.4682624 C9.04366454,17.4682624 9.07343071,17.4680361 9.10315989,17.4675903 C9.32677776,17.7832944 9.58221484,18.078264 9.86363847,18.3461853 C9.58449629,18.3739599 9.30074604,18.3876508 9.01387977,18.3876508 C4.03822202,18.3876508 0,14.268813 0,9.19382539 C0,4.11883774 4.03822202,0 9.01387977,0 Z M3.74976824,4.28430341 L2.33458381,4.51416467 C1.43319583,5.84725395 0.901378048,7.44698478 0.901378048,9.19381096 C0.901378048,9.80979534 0.97348917,10.3982004 1.09968332,10.977411 L3.40724178,10.1683543 L4.50693355,7.35504588 L3.74976824,4.28430341 Z M6.78745673,1.26873894 C5.33620913,1.69166176 4.05624695,2.50991086 3.0466925,3.62236359 L4.17342589,3.39251741 L6.48098435,2.2157094 Z M9.01389033,0.919381031 C8.59023902,0.919381031 8.18461475,0.965350266 7.77899047,1.03890074 L7.46350563,1.98586473 L9.01389245,2.75814546 L13.0701288,2.75814546 L13.322518,2.21571091 C12.0786035,1.40665419 10.6003207,0.919381031 9.01387977,0.919381031 Z" id="fail"></path>
            <g id="Icon/global/slash" transform="translate(9, 9)">
                <g id="slash" transform="translate(-0, -0)">
                    <path d="M5,0.416666667 C7.5313051,0.416666667 9.58333333,2.4686949 9.58333333,5 C9.58333333,7.5313051 7.5313051,9.58333333 5,9.58333333 C2.4686949,9.58333333 0.416666667,7.5313051 0.416666667,5 C0.416666667,3.7389313 0.925964507,2.59681549 1.75009457,1.76811817 L1.75953884,1.75953884 C1.76262063,1.75645705 1.76573868,1.75343363 1.76889163,1.75046858 C2.59681549,0.925964507 3.7389313,0.416666667 5,0.416666667 Z M1.25,5 C1.25,7.07106781 2.92893219,8.75 5,8.75 C5.88533127,8.75 6.69900543,8.44319946 7.34050436,7.93011649 L2.06968045,2.65974954 C1.5567196,3.30120926 1.25,4.11478553 1.25,5 Z M5,1.25 C4.11478553,1.25 3.30120926,1.5567196 2.65974954,2.06968045 L7.93011649,7.34050436 C8.44319946,6.69900543 8.75,5.88533127 8.75,5 C8.75,2.92893219 7.07106781,1.25 5,1.25 Z"></path>
                </g>
            </g>
        </g>
    </g>
</svg>