<?xml version="1.0" encoding="UTF-8"?>
<svg width="18px" height="18px" viewBox="0 0 18 18" version="1.1" xmlns="http://www.w3.org/2000/svg" xmlns:xlink="http://www.w3.org/1999/xlink">
    <title>4EE6E993-A4E6-4037-BAF0-C948BF32A15D</title>
    <g id="1_平台相關" stroke="none" stroke-width="1" fill="none" fill-rule="evenodd">
        <g id="1.6.0直播-點擊視頻區" transform="translate(-12.000000, -272.000000)" fill="#FFFFFF">
            <g id="video/normal/teach" transform="translate(0.000000, 88.000000)">
                <g id="sound_off" transform="translate(12.000000, 184.000000)">
                    <path d="M15.2794976,8.76160976 L17.83188,6.20585561 C18.0402901,5.98433693 18.0348778,5.63727988 17.8196615,5.42236763 C17.6044453,5.20745539 17.257381,5.20253359 17.0361571,5.41125659 L14.4820888,7.96925854 L11.9280205,5.41125659 C11.7067966,5.20253359 11.3597322,5.20745539 11.144516,5.42236763 C10.9292998,5.63727988 10.9238875,5.98433693 11.1322976,6.20585561 L13.68468,8.76160976 L11.1322976,11.316802 C10.9238875,11.5383206 10.9292998,11.8853777 11.144516,12.1002899 C11.3597322,12.3152022 11.7067966,12.320124 11.9280205,12.111401 L14.4820888,9.55396098 L17.0361571,12.111401 C17.2555795,12.3311338 17.6115852,12.3313853 17.831318,12.1119629 C18.0510508,11.8925404 18.0513024,11.5365348 17.83188,11.316802 L15.2794976,8.76160976 Z M7.92187024,16.4378634 C8.23197084,16.4372451 8.48320312,16.1860128 8.48382146,15.8759122 L8.48382146,2.38908293 C8.48382146,2.17610341 8.3635639,1.98166829 8.17362439,1.88613659 C7.98319465,1.79159487 7.7558056,1.81200993 7.58526146,1.93896 L2.97726146,5.38596878 L0.575481951,5.38596878 C0.265124863,5.38596878 0.0135307317,5.63756291 0.0135307317,5.94792 L0.0135307317,12.3170751 C0.0135307317,12.6274322 0.265124863,12.8790263 0.575481951,12.8790263 L2.97669951,12.8790263 L7.58469951,16.3260351 C7.68416488,16.3996507 7.80273659,16.4378634 7.92187024,16.4378634 L7.92187024,16.4378634 Z M7.35991902,14.7536956 L3.501,11.8669522 C3.4037743,11.7943866 3.28571146,11.7551637 3.16439122,11.7551239 L1.13799512,11.7551239 L1.13799512,6.50987122 L3.16439122,6.50987122 C3.28577268,6.50987122 3.40378244,6.47053463 3.501,6.39804293 L7.35991902,3.51129951 L7.35991902,14.7536956 Z"></path>
                </g>
            </g>
        </g>
    </g>
</svg>