<?xml version="1.0" encoding="UTF-8"?>
<svg width="20px" height="20px" viewBox="0 0 20 20" version="1.1" xmlns="http://www.w3.org/2000/svg" xmlns:xlink="http://www.w3.org/1999/xlink">
    <title>3D00164C-2C2A-49EB-9408-FA70C3471131</title>
    <g id="Page-1" stroke="none" stroke-width="1" fill="none" fill-rule="evenodd">
        <g id="UiKit_Icons" transform="translate(-415.000000, -2896.000000)" fill="#FFFFFF">
            <g id="sound_on" transform="translate(415.000000, 2896.000000)">
                <path d="M16.7299902,17.7735415 C16.9008095,17.7735415 17.0641835,17.7036211 17.1820488,17.5799805 C18.9628098,15.7149268 19.9836878,13.0019512 19.9836878,10.136 C19.9836878,7.27067317 18.9621854,4.55769756 17.1826732,2.6926439 C16.9414332,2.46020174 16.5598283,2.45929299 16.317484,2.69058355 C16.0751398,2.92187411 16.0582454,3.30310595 16.2791805,3.55492683 C17.8401561,5.19020488 18.7355317,7.5891122 18.7355317,10.136 C18.7355317,12.6835122 17.8401561,15.0824195 16.2785561,16.7176976 C16.1064197,16.8986118 16.0584931,17.1646268 16.1566666,17.3942414 C16.2548401,17.6238559 16.4802692,17.7729956 16.7299902,17.7735415 L16.7299902,17.7735415 Z M14.6538927,15.8472977 C14.8167587,15.847414 14.9731977,15.7837626 15.0897171,15.6699707 C16.4789854,14.3137951 17.2757073,12.297639 17.2757073,10.1372488 C17.2757073,7.97623415 16.4789854,5.96007805 15.0897171,4.60390244 C14.9305931,4.4450636 14.6983596,4.38404018 14.4817064,4.44413704 C14.2650533,4.50423389 14.0974398,4.67616984 14.0428774,4.89428257 C13.9883151,5.1123953 14.0552303,5.3430002 14.2180683,5.49802927 C15.3675707,6.62005854 16.0269268,8.31153171 16.0269268,10.1378732 C16.0269268,11.9642146 15.3669463,13.6550634 14.2180683,14.7770927 C14.0371311,14.9545179 13.981376,15.2237058 14.076953,15.4584035 C14.17253,15.6931012 14.4004806,15.8467544 14.6538927,15.8472977 L14.6538927,15.8472977 Z M12.1987902,12.7809171 C11.9453949,13.0051926 11.9165098,13.3904004 12.1336246,13.6499575 C12.3507394,13.9095145 12.7349909,13.949141 13.0005073,13.7393561 C13.9820488,12.9189073 14.5683512,11.5714732 14.5683512,10.1366244 C14.5683512,8.67992195 13.9683122,7.32187317 12.9636683,6.50267317 C12.6952621,6.30245266 12.3167463,6.34933806 12.1053036,6.60899572 C11.8938609,6.86865339 11.9246231,7.24881935 12.1750634,7.47110244 C12.8918634,8.05553171 13.3201951,9.05205854 13.3201951,10.1372488 C13.3189463,11.2068293 12.8999805,12.195239 12.1987902,12.7809171 L12.1987902,12.7809171 Z M8.41873171,2.14442927 L3.29685854,5.97443902 L0.627590244,5.97443902 C0.282749034,5.97443902 0.0032,6.25398806 0.0032,6.59882927 L0.0032,13.6756683 C0.0032,14.0205095 0.282749034,14.3000585 0.627590244,14.3000585 L3.29685854,14.3000585 L8.41873171,18.1300683 C8.60784647,18.2721127 8.86107624,18.2948477 9.07246829,18.188761 C9.2835122,18.0826146 9.41713171,17.8665756 9.41713171,17.6299317 L9.41713171,2.64456585 C9.41713171,2.40792195 9.2835122,2.19188293 9.07246829,2.08573659 C8.86082461,1.98098406 8.60833173,2.00365295 8.41873171,2.14442927 L8.41873171,2.14442927 Z M8.16835122,16.3836488 L3.87879024,13.1755317 C3.77076168,13.0949033 3.63958076,13.0513223 3.50478049,13.051278 L1.25198049,13.051278 L1.25198049,7.22321951 L3.50478049,7.22321951 C3.63964878,7.22321951 3.77077073,7.1795122 3.87879024,7.09896585 L8.16835122,3.89084878 L8.16835122,16.3836488 Z"></path>
            </g>
        </g>
    </g>
</svg>