<?xml version="1.0" encoding="UTF-8"?>
<svg width="16px" height="16px" viewBox="0 0 16 16" version="1.1" xmlns="http://www.w3.org/2000/svg" xmlns:xlink="http://www.w3.org/1999/xlink">
    <title>D108CDF6-0C78-40CB-9DA2-3D8093B3A50F</title>
    <g id="5.3提現" stroke="none" stroke-width="1" fill="none" fill-rule="evenodd">
        <g id="5.3.7.1-數字貨幣提現首頁" transform="translate(-12.000000, -100.000000)" fill="#4C9EEA">
            <g id="info" transform="translate(12.000000, 100.000000)">
                <path d="M13.0606971,2.93895894 C15.7535125,5.63207986 15.8515179,9.93080493 13.3640472,12.7406122 L13.2893764,12.8012891 C13.560058,13.3847208 14.0267504,14.1035087 14.7641245,14.4675701 C15.0068046,14.588924 14.9508015,14.9483179 14.6847868,14.990325 C13.8774089,15.1163462 12.7293455,14.9809901 11.6512859,14.1688531 L11.6279513,14.1735206 C8.88379975,15.7884596 5.2996018,15.4150633 2.94280498,13.0626665 C0.142650333,10.2621942 0.142650333,5.73009639 2.93813805,2.93895894 C5.73362577,0.143154037 10.2652094,0.143154037 13.0606971,2.93895894 Z M8.84039525,6.56842105 L6.33268547,6.56908526 C6.26825479,6.57041366 6.20382411,6.57439888 6.13939344,6.58635454 C5.95627467,6.61325478 5.86980192,6.69395548 5.85454202,6.81500654 C5.83928212,6.92709085 5.91558161,7.03917516 6.07835385,7.09297563 C6.21060629,7.13332598 6.353032,7.14229272 6.49545771,7.16022621 C6.82100218,7.20057656 6.92782146,7.30369413 6.92782146,7.59511334 C6.92782146,7.63994706 6.92782146,7.68478079 6.9176482,7.72961451 C6.78030912,8.42902061 6.63279678,9.12842671 6.50054434,9.82783281 C6.42424485,10.2313363 6.353032,10.6348398 6.29199241,11.0383434 C6.20043303,11.6301485 6.84643534,12.1860867 7.35509859,12.2488539 C7.66029653,12.2892043 7.97058111,12.298171 8.28086569,12.2936876 C8.94721454,12.2847209 9.49657084,12.0381354 9.95945439,11.6256651 C10.0408405,11.5539312 10.1120534,11.455297 10.1374865,11.3566628 C10.1883528,11.1862947 10.0357539,11.0786937 9.84246184,11.1504277 C9.72038266,11.1952614 9.60847675,11.2714787 9.48639757,11.3118291 C9.3337986,11.3611462 9.17611299,11.4104633 9.01334076,11.4283968 C8.82004872,11.4463303 8.68270965,11.3521794 8.63184332,11.1862947 C8.5962369,11.0652436 8.57589037,10.926259 8.59115027,10.8007246 C8.62675669,10.5317223 8.68779628,10.2672033 8.74374924,10.0026843 C8.91160811,9.20464404 9.07946698,8.40660375 9.24223922,7.60408008 C9.28801891,7.38887821 9.32871197,7.16919296 9.32362533,6.95399108 C9.31345207,6.69395548 9.13541994,6.56842105 8.84039525,6.56842105 Z M8.36655992,3.70529178 C7.77154534,3.70102277 7.28432326,4.1748828 7.28432326,4.7682751 C7.27569986,5.36166739 7.76292194,5.84833445 8.36224822,5.85260346 C8.9443277,5.85687247 9.42723808,5.37447442 9.43154978,4.78535113 C9.43586148,4.18768983 8.9615745,3.70956079 8.36655992,3.70529178 Z" id="Combined-Shape"></path>
            </g>
        </g>
    </g>
</svg>