<svg width="24" height="25" viewBox="0 0 24 25" fill="none" xmlns="http://www.w3.org/2000/svg">
<path fill-rule="evenodd" clip-rule="evenodd" d="M13.7999 2.85596C13.4685 2.85596 13.1999 3.12459 13.1999 3.45596C13.1999 3.78733 13.4685 4.05596 13.7999 4.05596H20.3999V9.45596C20.3999 9.75051 20.6122 9.99549 20.8921 10.0463L20.9999 10.056C21.3313 10.056 21.5999 9.78733 21.5999 9.45596V3.45596C21.5999 3.12459 21.3313 2.85596 20.9999 2.85596H13.7999ZM10.1999 2.85596C10.5313 2.85596 10.7999 3.12459 10.7999 3.45596C10.7999 3.78733 10.5313 4.05596 10.1999 4.05596H3.5999V9.45596C3.5999 9.75051 3.38765 9.99549 3.10775 10.0463L2.9999 10.056C2.66853 10.056 2.3999 9.78733 2.3999 9.45596V3.45596C2.3999 3.12459 2.66853 2.85596 2.9999 2.85596H10.1999ZM13.7999 22.056C13.4685 22.056 13.1999 21.7873 13.1999 21.456C13.1999 21.1246 13.4685 20.856 13.7999 20.856H20.3999V15.456C20.3999 15.1614 20.6122 14.9164 20.8921 14.8656L20.9999 14.856C21.3313 14.856 21.5999 15.1246 21.5999 15.456V21.456C21.5999 21.7873 21.3313 22.056 20.9999 22.056H13.7999ZM10.1999 22.056C10.5313 22.056 10.7999 21.7873 10.7999 21.456C10.7999 21.1246 10.5313 20.856 10.1999 20.856H3.5999V15.456C3.5999 15.1614 3.38765 14.9164 3.10775 14.8656L2.9999 14.856C2.66853 14.856 2.3999 15.1246 2.3999 15.456V21.456C2.3999 21.7873 2.66853 22.056 2.9999 22.056H10.1999Z" fill="white"/>
</svg>
