<?xml version="1.0" encoding="UTF-8"?>
<svg width="14px" height="14px" viewBox="0 0 14 14" version="1.1" xmlns="http://www.w3.org/2000/svg" xmlns:xlink="http://www.w3.org/1999/xlink">
    <title>3E7C07C6-5167-45AB-8B09-74C9DFD62048</title>
    <g id="5.2充值" stroke="none" stroke-width="1" fill="none" fill-rule="evenodd">
        <g id="XXPay充值" transform="translate(-112, -120)" fill="#333333">
            <g id="提現/錢包餘額提示" transform="translate(0, 96)">
                <g id="提現/btn/預約提現001" transform="translate(8, 23)">
                    <g id="Group-8" transform="translate(56, 0)">
                        <g id="Icon/arrow/refresh" transform="translate(48, 1)">
                            <g id="arrow_refresh_cw" transform="translate(-0, -0)">
                                <path d="M3.6085,3.00533333 C3.75316667,3.15233333 3.75083333,3.38916667 3.60383333,3.53383333 C2.6635,4.45433333 2.14666667,5.68516667 2.14666667,7 C2.14666667,9.42977404 3.94102757,11.4479798 6.27434762,11.7992154 L5.6617612,10.8651077 C5.54899473,10.6936019 5.59502186,10.4614273 5.76417156,10.3470901 C5.93332126,10.2327529 6.16115556,10.2794211 6.2750727,10.450927 L7.29188054,11.9936156 C7.34287591,12.0574447 7.37333333,12.1384348 7.37333333,12.2266667 C7.37333333,12.4083867 7.2441376,12.5593888 7.07240666,12.5930125 L7,12.6 C3.91183333,12.6 1.4,10.0881667 1.4,7 C1.4,5.48333333 1.99616667,4.0635 3.08,3.00066667 C3.227,2.856 3.46383333,2.85833333 3.6085,3.00533333 Z M7.00258228,1.40000901 C10.0881667,1.4 12.6,3.91183333 12.6,7 C12.6,8.778 11.7833333,10.4113333 10.36,11.48 C10.2935,11.5301667 10.2141667,11.5546667 10.1371667,11.5546667 C10.024,11.5546667 9.912,11.5033333 9.8385,11.4053333 C9.71483333,11.2408333 9.7475,11.0063333 9.91316667,10.8826667 C11.1463333,9.95633333 11.8533333,8.54116667 11.8533333,7 C11.8533333,4.57022596 10.0589724,2.55202023 7.72565238,2.20078456 L8.3382388,3.13451164 C8.45100527,3.30601747 8.40497814,3.53819203 8.23582844,3.65252924 C8.17254113,3.69453067 8.10119908,3.71436468 8.03100771,3.71436468 C7.91248785,3.71436468 7.79511867,3.65602936 7.72377662,3.54752568 L6.71140228,2.01043523 C6.65843394,1.94599846 6.62666667,1.86344242 6.62666667,1.77333333 C6.62666667,1.59094764 6.75681069,1.43950529 6.92948235,1.40662267 C6.94584988,1.40367763 6.96220558,1.40159956 6.97857064,1.40063276 C6.98510786,1.40021843 6.99252796,1.4 7,1.4 Z"></path>
                            </g>
                        </g>
                    </g>
                </g>
            </g>
        </g>
    </g>
</svg>