<?xml version="1.0" encoding="UTF-8"?>
<svg width="40px" height="40px" viewBox="0 0 40 40" version="1.1" xmlns="http://www.w3.org/2000/svg" xmlns:xlink="http://www.w3.org/1999/xlink">
    <title>1E768FA4-7412-4E0F-B1F7-5E8AE4D71D5A</title>
    <g id="UIkit" stroke="none" stroke-width="1" fill="none" fill-rule="evenodd">
        <g id="UiKit_體育_右側欄-(1)" transform="translate(-1277.000000, -695.000000)" fill="#FFFFFF" fill-rule="nonzero">
            <g id="右側欄/直播/視頻_登入直播" transform="translate(1242.000000, 639.000000)">
                <g id="icon" transform="translate(35.000000, 56.000000)">
                    <path d="M32,24 C36.4173355,24 40,27.5826645 40,32 C40,36.4173355 36.4173355,40 32,40 C27.5826645,40 24,36.4173355 24,32 C24,27.5826645 27.5826645,24 32,24 Z M35.505618,27.8459069 L30.1573034,37.1107544 C30.7351525,37.3162119 31.3515249,37.4382022 32,37.4382022 C34.9983949,37.4382022 37.4382022,34.9983949 37.4382022,32 C37.4382022,30.3370787 36.6869984,28.847512 35.505618,27.8459069 Z M32,26.5617978 C29.0016051,26.5617978 26.5617978,29.0016051 26.5617978,32 C26.5617978,33.6179775 27.2744783,35.0690209 28.3980738,36.0642055 L33.7207063,26.8443018 C33.1813804,26.6645265 32.6035313,26.5617978 32,26.5617978 Z M21.0922914,0 C27.1138332,0 32,4.88616684 32,10.9144667 L32,20.930095 C25.9446674,20.9976769 21.0314678,25.931151 21.0111932,32 L10.9077086,32 C4.88616684,32 0,27.1205913 0,21.0922914 L0,10.9077086 C0,4.88616684 4.88616684,0 10.9077086,0 Z M10.3670539,8.50179514 C9.87370644,8.21795143 9.25871172,8.57613516 9.25871172,9.1438226 L9.25871172,22.8561774 C9.25871172,23.4238648 9.87370644,23.7820486 10.3670539,23.4982049 L16.3750792,20.0650475 L22.36283,16.6454065 C22.8561774,16.3548046 22.8561774,15.6384372 22.36283,15.3545935 L16.3750792,11.9349525 Z" id="Combined-Shape"></path>
                </g>
            </g>
        </g>
    </g>
</svg>