<?xml version="1.0" encoding="UTF-8"?>
<svg width="20px" height="20px" viewBox="0 0 20 20" version="1.1" xmlns="http://www.w3.org/2000/svg" xmlns:xlink="http://www.w3.org/1999/xlink">
    <title>28779521-4A5E-498F-935B-6773EE7E9F8B</title>
    <g id="5.3-提現" stroke="none" stroke-width="1">
        <g id="5.3.7.1-數字貨幣提現首頁" transform="translate(-345.000000, -56.000000)">
            <g id="Global/Bars/Navigation/Navigation-Bar" transform="translate(0.000000, 44.000000)">
                <g id="Group" transform="translate(345.000000, 12.000000)">
                    <path d="M10,1 C14.9705627,1 19,5.02943725 19,10 C19,14.9705627 14.9705627,19 10,19 C5.02943725,19 1,14.9705627 1,10 C1,5.02943725 5.02943725,1 10,1 Z M10,2.5 C5.85786438,2.5 2.5,5.85786438 2.5,10 C2.5,14.1421356 5.85786438,17.5 10,17.5 C14.1421356,17.5 17.5,14.1421356 17.5,10 C17.5,5.85786438 14.1421356,2.5 10,2.5 Z M10.3536122,5 L10.3536122,5.9010989 C11.0380228,5.94505495 11.5855513,6.13186813 11.9847909,6.43956044 C12.4524715,6.79120879 12.7376426,7.37362637 12.851711,8.17582418 L12.851711,8.17582418 L11.5513308,8.17582418 C11.4828897,7.71428571 11.3117871,7.3956044 11.0380228,7.20879121 C10.8669202,7.08791209 10.6387833,7.01098901 10.3536122,6.97802198 L10.3536122,6.97802198 L10.3536122,9.3956044 C11.2547529,9.71428571 11.7452471,9.89010989 11.8136882,9.93406593 C12.6007605,10.3626374 13,10.978022 13,11.7802198 C13,12.5604396 12.6920152,13.1428571 12.0760456,13.5384615 C11.6197719,13.8241758 11.0494297,13.989011 10.3536122,14.032967 L10.3536122,14.032967 L10.3536122,15 L9.60076046,15 L9.60076046,14.032967 C8.82509506,13.978022 8.23193916,13.7692308 7.82129278,13.3956044 C7.34220532,12.956044 7.06844106,12.2857143 7,11.3846154 L7,11.3846154 L8.32319392,11.3846154 C8.36882129,11.956044 8.51711027,12.3736264 8.77946768,12.6153846 C8.97338403,12.7912088 9.24714829,12.9010989 9.60076046,12.9450549 L9.60076046,12.9450549 L9.60076046,10.3736264 L8.28897338,9.91208791 C7.4904943,9.49450549 7.1026616,8.87912088 7.1026616,8.06593407 C7.1026616,7.34065934 7.3878327,6.79120879 7.96958175,6.40659341 C8.40304183,6.10989011 8.9391635,5.94505495 9.60076046,5.9010989 L9.60076046,5.9010989 L9.60076046,5 L10.3536122,5 Z M10.3536122,10.6373626 L10.3536122,12.9450549 C10.6730038,12.9010989 10.9581749,12.8131868 11.1863118,12.6703297 C11.5057034,12.4725275 11.6653992,12.1868132 11.6653992,11.8241758 C11.6653992,11.3296703 11.2661597,10.9450549 10.4790875,10.6813187 C10.4334601,10.6593407 10.3992395,10.6483516 10.3536122,10.6373626 L10.3536122,10.6373626 Z M9.60076046,6.96703297 C9.30418251,7 9.06463878,7.07692308 8.89353612,7.18681319 C8.58555133,7.36263736 8.43726236,7.65934066 8.43726236,8.06593407 C8.43726236,8.48351648 8.82509506,8.83516484 9.60076046,9.12087912 L9.60076046,9.12087912 Z" id="Combined-Shape"></path>
                    <path d="M10.3536122,15 L10.3536122,14.032967 C11.0494297,13.989011 11.6197719,13.8241758 12.0760456,13.5384615 C12.6920152,13.1428571 13,12.5604396 13,11.7802198 C13,10.978022 12.6007605,10.3626374 11.8136882,9.93406593 C11.7452471,9.89010989 11.2547529,9.71428571 10.3536122,9.3956044 L10.3536122,6.97802198 C10.6387833,7.01098901 10.8669202,7.08791209 11.0380228,7.20879121 C11.3117871,7.3956044 11.4828897,7.71428571 11.5513308,8.17582418 L12.851711,8.17582418 C12.7376426,7.37362637 12.4524715,6.79120879 11.9847909,6.43956044 C11.5855513,6.13186813 11.0380228,5.94505495 10.3536122,5.9010989 L10.3536122,5 L9.60076046,5 L9.60076046,5.9010989 C8.9391635,5.94505495 8.40304183,6.10989011 7.96958175,6.40659341 C7.3878327,6.79120879 7.1026616,7.34065934 7.1026616,8.06593407 C7.1026616,8.87912088 7.4904943,9.49450549 8.28897338,9.91208791 L9.60076046,10.3736264 L9.60076046,12.9450549 C9.24714829,12.9010989 8.97338403,12.7912088 8.77946768,12.6153846 C8.51711027,12.3736264 8.36882129,11.956044 8.32319392,11.3846154 L7,11.3846154 C7.06844106,12.2857143 7.34220532,12.956044 7.82129278,13.3956044 C8.23193916,13.7692308 8.82509506,13.978022 9.60076046,14.032967 L9.60076046,15 L10.3536122,15 Z M9.60076046,9.12087912 C8.82509506,8.83516484 8.43726236,8.48351648 8.43726236,8.06593407 C8.43726236,7.65934066 8.58555133,7.36263736 8.89353612,7.18681319 C9.06463878,7.07692308 9.30418251,7 9.60076046,6.96703297 L9.60076046,9.12087912 Z M10.3536122,12.9450549 L10.3536122,10.6373626 C10.3992395,10.6483516 10.4334601,10.6593407 10.4790875,10.6813187 C11.2661597,10.9450549 11.6653992,11.3296703 11.6653992,11.8241758 C11.6653992,12.1868132 11.5057034,12.4725275 11.1863118,12.6703297 C10.9581749,12.8131868 10.6730038,12.9010989 10.3536122,12.9450549 Z" id="$"></path>
                </g>
            </g>
        </g>
    </g>
</svg>
