<?xml version="1.0" encoding="UTF-8"?>
<svg width="20px" height="20px" viewBox="0 0 20 20" version="1.1" xmlns="http://www.w3.org/2000/svg" xmlns:xlink="http://www.w3.org/1999/xlink">
    <title>F991F225-A7B5-4CCC-99DC-5C553FE95D6B</title>
    <g id="5.2充值" stroke="none" stroke-width="1" fill="none" fill-rule="evenodd">
        <g id="5.2.4.1_銀行卡-選擇銀行資料" transform="translate(-328.000000, -356.000000)" fill="#999999">
            <g id="list/style3" transform="translate(12.000000, 336.000000)">
                <g id="Icon/paste" transform="translate(316.000000, 20.000000)">
                    <path d="M15,4.25 C15.4142136,4.25 15.75,4.58578644 15.75,5 L15.75,5 L15.75,18 C15.75,18.4142136 15.4142136,18.75 15,18.75 L15,18.75 L2,18.75 C1.58578644,18.75 1.25,18.4142136 1.25,18 L1.25,18 L1.25,5 C1.25,4.58578644 1.58578644,4.25 2,4.25 L2,4.25 Z M14.25,5.75 L2.75,5.75 L2.75,17.25 L14.25,17.25 L14.25,5.75 Z M18,1.25 C18.3796958,1.25 18.693491,1.53215388 18.7431534,1.89822944 L18.75,2 L18.75,16 C18.75,16.4142136 18.4142136,16.75 18,16.75 C17.6203042,16.75 17.306509,16.4678461 17.2568466,16.1017706 L17.25,16 L17.25,2.75 L4,2.75 C3.62030423,2.75 3.30650904,2.46784612 3.25684662,2.10177056 L3.25,2 C3.25,1.62030423 3.53215388,1.30650904 3.89822944,1.25684662 L4,1.25 L18,1.25 Z" id="Combined-Shape"></path>
                </g>
            </g>
        </g>
    </g>
</svg>