<?xml version="1.0" encoding="UTF-8"?>
<svg width="24px" height="24px" viewBox="0 0 24 24" version="1.1" xmlns="http://www.w3.org/2000/svg" xmlns:xlink="http://www.w3.org/1999/xlink">
    <g id="5.0個人中心" stroke="none" stroke-width="1" fill="none" fill-rule="evenodd">
        <g id="5.0.0_未登入我的頁" transform="translate(-20.000000, -1060.000000)">
            <g id="Personal/list_main" transform="translate(0.000000, 1048.000000)">
                <g id="M4" transform="translate(20.000000, 12.000000)">
                    <path d="M22.1393932,8.15821765 C20.820644,4.60838071 17.6685828,2.0173051 13.8705605,1.36102395 C10.0725382,0.704742798 6.20556474,2.08296083 3.72629165,4.97651663 C1.24701857,7.87007243 0.532106414,11.839366 1.85085568,15.389203 C2.04343094,15.9707817 2.30845863,16.5268935 2.63994432,17.0449601 C2.63964767,17.0596289 2.64546627,17.0737829 2.65605808,17.0841574 C2.66664989,17.0945319 2.68110033,17.1002311 2.69607648,17.0999405 C2.90107661,17.2632454 3.171652,17.3245248 3.42903295,17.2659392 C3.6946683,17.1541737 3.85457883,16.8855434 3.82303754,16.6040592 L3.71509108,16.4380606 C3.45432533,15.9762651 3.22847183,15.4963673 3.03934623,15.0022252 C1.69061196,11.4528936 2.66051979,7.45721208 5.49585491,4.8822673 C8.33119002,2.30732252 12.4721285,1.66152555 15.9837085,3.24664192 C19.4952886,4.83175828 21.6841648,8.33481403 21.5275275,12.1189147 C21.3708902,15.9030154 18.8996667,19.2210077 15.2686009,20.522473 C15.0429928,20.5774534 14.8173847,20.6884716 14.592856,20.743452 C14.1401945,19.6326799 12.915103,19.0246577 11.7329362,19.324052 C10.5507694,19.6234463 9.78011635,20.7369088 9.93388205,21.923379 C10.0876478,23.1098492 11.1178894,23.9993963 12.3389339,23.9999929 C13.5725864,24.0029084 14.6135969,23.1018003 14.762332,21.9022706 C15.0885965,21.8358323 15.4088115,21.7435423 15.7198171,21.6263111 C18.4034641,20.6858366 20.5917983,18.7334066 21.7975585,16.2037551 C23.0033186,13.6741036 23.1263986,10.7772503 22.1393932,8.15821765 L22.1393932,8.15821765 Z M12.3335366,23.007166 C11.5865333,23.007166 10.9809674,22.4140251 10.9809674,21.6823488 C10.9809674,20.9506725 11.5865333,20.3575316 12.3335366,20.3575316 C13.0805399,20.3575316 13.6861058,20.9506725 13.6861058,21.6823488 C13.6762266,22.4099793 13.0764094,22.9974895 12.3335366,23.007166 L12.3335366,23.007166 Z" fill="#999999"></path>
                    <path d="M6.81240431,10.3200374 C6.22420123,10.3200374 5.74736842,10.8304169 5.74736842,11.460002 C5.74736842,12.0895871 6.22420123,12.5999667 6.81240431,12.5999667 C7.40060738,12.5999667 7.87744019,12.0895871 7.87744019,11.460002 C7.83899032,10.8482739 7.38392413,10.3611923 6.81240431,10.3200374 Z M11.9999548,10.3200374 C11.4117518,10.3200374 10.9349189,10.8304169 10.9349189,11.460002 C10.9349189,12.0895871 11.4117518,12.5999667 11.9999548,12.5999667 C12.5881579,12.5999667 13.0649907,12.0895871 13.0649907,11.460002 C13.068701,11.157449 12.9584141,10.866046 12.7590201,10.651558 C12.5596262,10.4370699 12.2879297,10.3175736 12.0052483,10.3200374 L11.9999548,10.3200374 Z M17.1875054,10.3200278 C16.7567386,10.3200278 16.3683878,10.5977808 16.2035405,11.0237564 C16.0386932,11.449732 16.1298131,11.9400512 16.4344113,12.2660788 C16.7390094,12.5921064 17.1971003,12.6896369 17.5950769,12.513192 C17.9930536,12.3367472 18.2525412,11.9210747 18.2525412,11.460002 C18.2562348,11.1582399 18.1465255,10.8675373 17.9480533,10.6531842 C17.7495811,10.4388311 17.4789829,10.3187958 17.1970335,10.3200278 L17.1875054,10.3200278 Z" id="Path_2268" fill="#0C186C"></path>
                </g>
            </g>
        </g>
    </g>
</svg>