<?xml version="1.0" encoding="UTF-8"?>
<svg width="20px" height="20px" viewBox="0 0 20 20" version="1.1" xmlns="http://www.w3.org/2000/svg" xmlns:xlink="http://www.w3.org/1999/xlink">
<title>43F39D4D-99FC-4EA8-A8CE-363AF31ABC8D</title>
    <g id="5.13-在線客服" stroke="none" stroke-width="1" fill="none" fill-rule="evenodd">
        <g id="5.13.2_未登入客服頁" transform="translate(-30.000000, -256.000000)" fill="#333333">
            <g id="service" transform="translate(30.000000, 256.000000)">
                <path d="M19,16 L19,9.52631579 L19,9.52631579 C19,4.81789474 14.97,1 10,1 C5.03,1 1,4.81789474 1,9.52631579 L1,16.1578947 C1,17.7305263 2.34,19 4,19 L7,19 L7,11.4210526 L3,11.4210526 L3,9.52631579 C3,5.86 6.13,2.89473684 10,2.89473684 C13.87,2.89473684 17,5.86 17,9.52631579 L17,11.4210526 L13,11.4210526 L13,19 L16,19 C17.6568542,19 19,17.6568542 19,16 Z"></path>
            </g>
        </g>
    </g>
</svg>