<?xml version="1.0" encoding="UTF-8"?>
<svg width="20px" height="20px" viewBox="0 0 20 20" version="1.1" xmlns="http://www.w3.org/2000/svg" xmlns:xlink="http://www.w3.org/1999/xlink">
    <title>Icon/game_info/live host@0.5x</title>
    <g id="Symbols" stroke="none" stroke-width="1" fill="none" fill-rule="evenodd">
        <g id="live" fill="#999999" transform="translate(-0, 0)">
            <path d="M15,0 C17.7625,0 20,2.2375 20,5 L20,15 C20,17.7625 17.7625,20 15,20 L5,20 C2.2375,20 0,17.7625 0,15 L0,5 C0,2.2375 2.2375,0 5,0 L15,0 Z M15,18.75 C17.0625,18.75 18.75,17.0625 18.75,15 L18.75,5 C18.75,2.9375 17.0625,1.25 15,1.25 L5,1.25 C2.9375,1.25 1.25,2.9375 1.25,5 L1.25,15 C1.25,17.0625 2.9375,18.75 5,18.75 L9.375,18.75 L9.375,17.275 C6.15,16.925 3.725,14.1875 3.7375,10.8625 L3.7375,9.0375 C3.7125,8.6875 3.9875,8.3875 4.325,8.375 L4.3625,8.3625 C4.5125,8.3625 4.6625,8.425 4.775,8.525 C4.9,8.6375 4.975,8.8 4.9875,8.975 L4.9875,10.8625 C4.9875,13.6875 7.2375,16 10,16 C11.3375,16 12.6,15.4625 13.5375,14.4875 C14.4875,13.525 15.0125,12.225 15.0125,10.8625 L15.0125,9.0375 C14.9875,8.6875 15.2625,8.3875 15.6,8.375 L15.6375,8.3625 C15.7875,8.3625 15.9375,8.425 16.05,8.525 C16.175,8.6375 16.25,8.8 16.2625963,8.975 L16.2625963,10.8625 C16.275,14.175 13.8625,16.9375 10.6375,17.275 L10.6375,18.75 L15,18.75 Z M9.99876862,2.5 C11.9237686,2.5 13.4862686,4.1 13.4862686,6.075 L13.4862686,10.9125 C13.4862686,12.8875 11.9237686,14.4875 9.99876862,14.4875 C8.07376862,14.4875 6.51126862,12.8875 6.51126862,10.9125 L6.51126862,6.075 C6.51126862,4.1 8.07376862,2.5 9.99876862,2.5 Z M9.99876862,3.75 C8.76126862,3.75 7.76126862,4.7875 7.76126862,6.075 L7.76126862,10.9125 C7.76126862,12.2 8.76126862,13.2375 9.99876862,13.2375 C11.2362686,13.2375 12.2362686,12.2 12.2362686,10.9125 L12.2362686,6.075 C12.2362686,4.7875 11.2362686,3.75 9.99876862,3.75 Z" id="Combined-Shape"></path>
        </g>
    </g>
</svg>