<?xml version="1.0" encoding="UTF-8"?>
<svg width="26px" height="25px" viewBox="0 0 26 25" version="1.1" xmlns="http://www.w3.org/2000/svg" xmlns:xlink="http://www.w3.org/1999/xlink">
    <title>286AEC4A-1BBA-4A75-9510-F3CCDD65F926</title>
    <g id="5.3-提現" stroke="none" stroke-width="1" fill="none" fill-rule="evenodd">
        <g id="5.3.8.1-數字貨幣提現_未填寫" transform="translate(-248.000000, -239.000000)" fill="currentColor">
            <g id="card/withdrawal" transform="translate(10.000000, 182.000000)">
                <g id="input/scan_paste" transform="translate(12.000000, 48.000000)">
                    <g id="Icon/paste" transform="translate(226.098462, 9.000000)">
                        <path d="M19.0961538,5.3125 C19.6234796,5.3125 20.0509615,5.73223305 20.0509615,6.25 L20.0509615,6.25 L20.0509615,22.5 C20.0509615,23.017767 19.6234796,23.4375 19.0961538,23.4375 L19.0961538,23.4375 L2.54615385,23.4375 C2.01882812,23.4375 1.59134615,23.017767 1.59134615,22.5 L1.59134615,22.5 L1.59134615,6.25 C1.59134615,5.73223305 2.01882812,5.3125 2.54615385,5.3125 L2.54615385,5.3125 Z M18.1413462,7.1875 L3.50096154,7.1875 L3.50096154,21.5625 L18.1413462,21.5625 L18.1413462,7.1875 Z M22.9153846,1.5625 C23.3987665,1.5625 23.798252,1.91519235 23.861476,2.3727868 L23.8701923,2.5 L23.8701923,20 C23.8701923,20.517767 23.4427103,20.9375 22.9153846,20.9375 C22.4320027,20.9375 22.0325173,20.5848076 21.9692932,20.1272132 L21.9605769,20 L21.9605769,3.4375 L5.09230769,3.4375 C4.60892578,3.4375 4.20944035,3.08480765 4.14621627,2.6272132 L4.1375,2.5 C4.1375,2.02538029 4.4967036,1.6331363 4.96274594,1.57105827 L5.09230769,1.5625 L22.9153846,1.5625 Z" id="Combined-Shape"></path>
                    </g>
                </g>
            </g>
        </g>
    </g>
</svg>
