<svg
  width="18px"
  height="18px"
  viewBox="0 0 24 24"
  xmlns="http://www.w3.org/2000/svg"
>
  <path
    d="M20.107 7.294a1.783 1.783 0 01.653 2.437l-.14.244a1.787 1.787 0 01-2.44.653l-.41-.236-1.873 3.24a6.985 6.985 0 01-.366 6.275l-.282.489a.798.798 0 01-1.09.291l-4.69-2.704L7.61 21.2a.798.798 0 01-1.381-.796l1.86-3.22L3.4 14.482a.796.796 0 01-.292-1.088l.282-.489A7 7 0 018.647 9.45l1.872-3.24-.41-.236a1.783 1.783 0 01-.653-2.437l.14-.245a1.787 1.787 0 012.44-.653l8.07 4.655z"
    fill="#FFF"
    fillRule="evenodd"
  />
</svg>