<?xml version="1.0" encoding="UTF-8"?>
<svg width="26px" height="25px" viewBox="0 0 26 25" version="1.1" xmlns="http://www.w3.org/2000/svg" xmlns:xlink="http://www.w3.org/1999/xlink">
    <title>CC282B32-4F28-406F-8D6A-6138441153F9</title>
    <g id="5.3-提現" stroke="none" stroke-width="1" fill="none" fill-rule="evenodd">
        <g id="5.3.8.1-數字貨幣提現_未填寫" transform="translate(-307.000000, -239.000000)" fill="#FFFFFF">
            <g id="card/withdrawal" transform="translate(10.000000, 182.000000)">
                <g id="input/scan_paste" transform="translate(12.000000, 48.000000)">
                    <g id="$address" transform="translate(285.169231, 9.000000)">
                        <path d="M4.51173548,13.125 C0.962970808,13.125 0.636539319,13.125 0.636539319,12.1875 C0.636539319,11.25 0.999110148,11.25 4.51173548,11.25 L20.9933606,11.25 C24.557976,11.25 24.825153,11.25 24.825153,12.1875 C24.825153,13.125 24.5579055,13.125 20.9933606,13.125 L4.51173548,13.125 Z" id="Combined-Shape"></path>
                        <path d="M2.15443787,17.5192308 C2.64130166,17.5192308 3.03579882,17.9065769 3.03579882,18.3846154 L3.03579882,21.1285769 C3.03579882,21.6197692 3.42359763,22.0192308 3.90023763,22.0192308 L6.73751479,22.0192308 C7.22437858,22.0192308 7.61887574,22.4065769 7.61887574,22.8846154 C7.61887574,23.3626538 7.22437858,23.75 6.73751479,23.75 L3.90023763,23.75 C2.45163278,23.75 1.27307692,22.5741154 1.27307692,21.1285769 L1.27307692,18.3846154 C1.27307692,17.9065769 1.66757408,17.5192308 2.15443787,17.5192308 Z M23.3070301,17.5192308 C23.7938939,17.5192308 24.188391,17.9065769 24.188391,18.3846154 L24.188391,21.1704615 C24.188391,22.5928077 22.9907978,23.75 21.5185724,23.75 L18.7239532,23.75 C18.2370894,23.75 17.8425922,23.3626538 17.8425922,22.8846154 C17.8425922,22.4065769 18.2370894,22.0192308 18.7239532,22.0192308 L21.5185724,22.0192308 C22.0188329,22.0192308 22.4256691,21.6384615 22.4256691,21.1704615 L22.4256691,18.3846154 C22.4256691,17.9065769 22.8201663,17.5192308 23.3070301,17.5192308 Z M6.73751479,1.25 C7.22437858,1.25 7.61887574,1.63734615 7.61887574,2.11538462 C7.61887574,2.59342308 7.22437858,2.98076923 6.73751479,2.98076923 L3.9428955,2.98076923 C3.44263503,2.98076923 3.03579882,3.36153846 3.03579882,3.82953846 L3.03579882,6.61538462 C3.03579882,7.09342308 2.64130166,7.48076923 2.15443787,7.48076923 C1.66757408,7.48076923 1.27307692,7.09342308 1.27307692,6.61538462 L1.27307692,3.82953846 C1.27307692,2.40719231 2.47067018,1.25 3.9428955,1.25 L6.73751479,1.25 Z M21.5613008,1.25 C23.0099057,1.25 24.1884615,2.42588462 24.1884615,3.87142308 L24.1884615,6.61538462 C24.1884615,7.09342308 23.7939644,7.48076923 23.3071006,7.48076923 C22.8202368,7.48076923 22.4257396,7.09342308 22.4257396,6.61538462 L22.4257396,3.87142308 C22.4257396,3.38023077 22.0379408,2.98076923 21.5613008,2.98076923 L18.7240237,2.98076923 C18.2371599,2.98076923 17.8426627,2.59342308 17.8426627,2.11538462 C17.8426627,1.63734615 18.2371599,1.25 18.7240237,1.25 L21.5613008,1.25 Z" id="Combined-Shape"></path>
                    </g>
                </g>
            </g>
        </g>
    </g>
</svg>