<?xml version="1.0" encoding="UTF-8"?>
<svg width="20px" height="20px" viewBox="0 0 20 20" version="1.1" xmlns="http://www.w3.org/2000/svg" xmlns:xlink="http://www.w3.org/1999/xlink">
    <title>B6265C04-C77A-438C-99D9-8A895D07B1C3</title>
    <g id="3.1-滾球簡易盤" stroke="none" stroke-width="1" fill="none" fill-rule="evenodd">
        <g id="3.1.1.1-進球推送-進球" transform="translate(-223.000000, -610.000000)" fill="#FFFFFF">
            <g id="Group" transform="translate(30.000000, 585.000000)">
                <g id="soccer" transform="translate(193.000000, 25.000000)">
                    <path d="M10,0 C4.48000431,0 0,4.48000431 0,10 C0,15.5199957 4.48000431,20 10,20 C15.5199957,20 20,15.5199957 20,10 C20,4.48000431 15.5199957,0 10,0 L10,0 Z M10,0.999998359 C11.7599978,0.999998359 13.4000052,1.5299988 14.7800041,2.4099989 L14.5000035,2.99999836 L11.0000141,2.99999836 L10.0000141,2.99999836 L8.28001462,2.15999831 L8.63001357,1.12999834 C9.08001322,1.04999848 9.53001287,0.999998359 10.0000117,0.999998359 L10,0.999998359 Z M7.53000584,1.37999025 L7.19000532,2.40999726 L4.62999951,3.68999548 L3.38000127,3.93999606 C4.50000117,2.72999623 5.91999147,1.8399977 7.53000584,1.37999025 L7.53000584,1.37999025 Z M10.999989,3.99997961 L13.999989,3.99997961 L16.6899831,7.5899854 L15.4399848,10.1599756 L12.8099947,10.7799743 L9.52998943,6.93997731 L10.999989,3.99997961 L4.15999363,4.65997909 L4.99998898,7.99997961 L3.7799947,11.0599819 L1.21998889,11.939982 C1.07998908,11.3099825 0.999988984,10.6699822 0.999988984,9.99997961 C0.999988984,8.099985 1.58998774,6.35997933 2.58998774,4.90999609 L4.1599873,4.6599955 L10.999989,3.99997961 Z M18.559976,7.21999428 C18.849975,8.09000063 18.9999749,9.03000068 18.9999749,9.99999133 C18.9999749,11.4399902 18.6299744,12.7899891 18.0299749,13.999996 L16.9999749,13.999996 L16.1599756,10.6599908 L17.6599756,7.65999316 L18.5599737,7.21999428 L18.559976,7.21999428 Z M5.99999133,7.99999367 L8.99998898,7.99999367 L11.809979,11.2799989 L9.99997961,13.9999937 L6.83997427,14.7799884 L4.52997607,11.6899908 L5.99997492,7.99999367 L9.99997961,14.9999937 L12.9999773,16.9999937 L12.1299779,18.7199931 C11.4399785,18.8799931 10.7299798,18.9999937 9.99997961,18.9999937 C8.2499802,18.9999937 6.62997443,18.4999937 5.24997551,17.6299955 L6.40997382,15.9099961 L9.9999632,14.9999937 L5.99999133,7.99999367 Z M16.9999655,14.999996 L17.4999644,14.999996 C16.4999644,16.499996 14.9999585,17.6699939 13.3099755,18.3400012 L13.9999749,16.999996 L16.9999726,14.999996 L16.9999655,14.999996 Z"></path>
                </g>
            </g>
        </g>
    </g>
</svg>