<?xml version="1.0" encoding="UTF-8"?>
<svg width="20px" height="20px" viewBox="0 0 20 20" version="1.1" xmlns="http://www.w3.org/2000/svg" xmlns:xlink="http://www.w3.org/1999/xlink">
    <title>3Dlive@0.5x</title>
    <g id="Symbols" stroke="none" stroke-width="1" fill="none" fill-rule="evenodd">
        <g id="3Dlive" fill="#999999">
            <path d="M15,0 C17.7625,0 20,2.2375 20,5 L20,15 C20,17.7625 17.7625,20 15,20 L5,20 C2.2375,20 0,17.7625 0,15 L0,5 C0,2.2375 2.2375,0 5,0 Z M2.1375,5.04638672 L1.2625,5.04638672 C1.25416667,5.04638672 1.25,5.05055339 1.25,5.05888672 L1.25,14.9463867 L2.1125,14.9463867 C2.825,14.9463867 3.3875,14.3963867 3.4,13.6963867 L3.4,6.29638672 C3.4,5.95888672 3.2625,5.63388672 3.0125,5.39638672 C2.775,5.17138672 2.475,5.04638672 2.1375,5.04638672 Z M9.60998688,1.25 C9.63498688,1.275 9.64748688,1.2875 9.64748688,1.3125 L9.64748688,6.5 C9.64748688,6.5625 9.59748688,6.6125 9.54748688,6.625 C8.28498688,6.8875 7.30998688,7.8625 7.05998688,9.1125 C6.70998688,10.8375 7.83498688,12.525 9.54748688,12.875 C9.60998688,12.8875 9.64748688,12.9375 9.64748688,13 L9.64748688,18.675 C9.64748688,18.7125 9.63498688,18.725 9.62248688,18.75 L4.99748688,18.75 C3.33498688,18.75 1.93498688,17.65 1.44748688,16.1375 L2.12248688,16.1375 C3.45998688,16.1375 4.55998688,15.0375 4.55998688,13.7 L4.55998688,6.3 C4.55998688,4.95 3.45998688,3.85 2.09748688,3.85 L1.44748688,3.85 C1.93498688,2.35 3.33498688,1.25 4.99748688,1.25 Z M15.0024857,1.25 C16.6649857,1.25 18.0649857,2.35 18.5524857,3.85 L18.3149857,3.85 C16.9774857,3.8625 15.8774857,4.95 15.8774857,6.3 L15.8774857,13.7 C15.8774857,15.0375 16.9774857,16.125 18.3149857,16.1375 L18.5524857,16.1375 C18.0774857,17.65 16.6649857,18.75 15.0024857,18.75 L10.8149857,18.75 C10.8024857,18.725 10.7899857,18.7125 10.7899857,18.6875 L10.7899857,12.9875 C10.7899857,12.9375 10.8274857,12.875 10.8899857,12.8625 C11.9399857,12.65 12.7899857,11.9125 13.1649857,10.9125 C13.7899857,9.275 13.0149857,7.475 11.4024857,6.8 C11.2399857,6.725 11.0649857,6.675 10.8899857,6.6375 C10.8274857,6.625 10.7899857,6.575 10.7899857,6.5125 L10.7899857,1.325 C10.7899857,1.2875 10.8024857,1.275 10.8149857,1.25 Z M10.237616,7.63244629 C10.525116,7.63244629 10.787616,7.69494629 11.037616,7.80744629 C12.112616,8.26994629 12.612616,9.51994629 12.150116,10.5824463 C11.812616,11.3699463 11.050116,11.8699463 10.200116,11.8699463 C9.91261597,11.8699463 9.63761597,11.8074463 9.37511597,11.6949463 C8.85011597,11.4699463 8.45011597,11.0574463 8.23761597,10.5324463 C8.02511597,10.0074463 8.03761597,9.43244629 8.26261597,8.91994629 C8.26261597,8.89494629 8.27511597,8.88244629 8.28761597,8.86994629 C8.62511597,8.11994629 9.37511597,7.63244629 10.237616,7.63244629 Z M18.7475143,4.99996338 L18.7475143,5.06246338 L18.7350143,5.04996338 L18.3100143,5.04996338 C17.6350143,5.04996338 17.0850143,5.57496338 17.0350143,6.23746338 C17.0225143,6.26246338 17.0225143,6.27496338 17.0225143,6.28746338 L17.0225143,13.6874634 C17.0225143,14.0249634 17.1600143,14.3499634 17.4100143,14.5874634 C17.6475143,14.8124634 17.9600143,14.9374634 18.2975143,14.9374634 L18.7350143,14.9374634 L18.7475143,14.9374634 L18.7475143,14.9999634 L18.7475143,4.99996338 Z M18.7475143,14.9999634 L18.7475143,15.0999634 M18.7475143,15.0999634 L18.7475143,14.9999634 M18.7475143,5.06246338 C18.7475143,5.02913005 18.7475143,4.99579671 18.7475143,4.96246338 M18.7475143,4.96246338 C18.7475143,4.99579671 18.7475143,5.02913005 18.7475143,5.06246338 M18.6575104,16.0849878 C18.6211467,16.1192735 18.593874,16.1507021 18.5575104,16.1849878 C18.593874,16.1507021 18.6211467,16.1192735 18.6575104,16.0849878 Z M18.6887604,15.6124878 C18.6575104,15.7737378 18.6187604,15.9312378 18.5712604,16.0849878 C18.6187604,15.9312378 18.6612604,15.7749878 18.6887604,15.6124878 Z M18.6874838,4.38239258 C18.6599838,4.21614258 18.6162338,4.05739258 18.5662338,3.89989258 C18.6162338,4.05614258 18.6562338,4.21739258 18.6874838,4.38239258 Z M18.5537338,3.85864258 C18.5837338,3.89197591 18.6237338,3.92530924 18.6537338,3.95864258 C18.6237338,3.92530924 18.5937338,3.89197591 18.5537338,3.85864258 Z" id="路径-18782"></path>
        </g>
    </g>
</svg>