<?xml version="1.0" encoding="UTF-8"?>
<svg width="21px" height="20px" viewBox="0 0 21 20" version="1.1" xmlns="http://www.w3.org/2000/svg" xmlns:xlink="http://www.w3.org/1999/xlink">
    <title>80996BDF-CC79-4334-96FB-8F42FD373710</title>
    <g id="0.1" stroke="none" stroke-width="1" fill="none" fill-rule="evenodd">
        <g id="0.6_連線逾時-" transform="translate(-956.000000, -510.000000)" fill="#FFFFFF">
            <g id="Group" transform="translate(834.000000, 359.000000)">
                <g id="btn" transform="translate(107.500000, 144.000000)">
                    <g id="refresh_cw" transform="translate(15.000000, 7.000000)">
                        <path d="M3.82348083,10.8189322 C3.85909918,11.0245128 3.90432161,11.2293894 3.95916258,11.4330957 C4.41312291,13.1193275 5.47596828,14.525377 6.90342348,15.3917519 C8.32181212,16.252624 9.98901561,16.5133688 11.5780097,16.0896024 C13.1670037,15.6658359 14.4798556,14.6103447 15.2757453,13.1589501 C15.3811096,12.9668065 15.4767351,12.768777 15.5621816,12.5657226 C15.7366335,12.1511569 16.2157152,11.9558408 16.6322407,12.1294719 C17.0487661,12.3031029 17.2450055,12.7799305 17.0705537,13.1944962 C16.9634392,13.4490422 16.8434781,13.6974678 16.7111926,13.9387053 C15.7045528,15.7744264 14.0299649,17.1207419 12.001263,17.6617734 C9.97256111,18.2028048 7.84598552,17.8702158 6.05201031,16.7813865 C4.73273002,15.9806669 3.66499828,14.8145628 2.97033141,13.4160869 L2.88243695,13.2329522 L2.47864497,14.2438208 L1.99637842,15.4676421 C1.83236929,15.8864093 1.35833093,16.0935571 0.937584098,15.9303196 C0.51683727,15.7670822 0.308710242,15.2952742 0.472719372,14.876507 L1.19672347,13.0464389 L1.67025938,11.8828724 L1.86210995,11.4273349 L2.02873404,11.0471107 L2.11913921,10.8519569 L2.15833781,10.7715057 C2.21571185,10.6562279 2.26284361,10.5718809 2.31688077,10.4970099 C2.41543963,10.3604521 2.50499534,10.2688828 2.70325822,10.1902355 C3.30248872,9.9525316 3.74541243,10.3683401 3.82348083,10.8189322 Z M13.9479897,3.21861352 C15.26727,4.01933311 16.3350017,5.1854372 17.0296686,6.58391312 L17.116628,6.76645461 L17.521355,5.75617919 L18.0036216,4.53235789 C18.1676307,4.11359068 18.6416691,3.9064429 19.0624159,4.06968036 C19.4831627,4.23291782 19.6912898,4.70472583 19.5272806,5.12349303 L18.8953794,6.7233168 L18.39926,7.94911496 L18.1378901,8.57266507 L17.971266,8.95288928 L17.8808608,9.14804315 L17.8416622,9.22849429 C17.7842882,9.34377207 17.7371564,9.42811909 17.6831192,9.50299007 C17.5845604,9.63954791 17.4950047,9.73111718 17.2967418,9.80976448 C16.6975113,10.0474684 16.2545876,9.6316599 16.1765192,9.18106781 C16.1409008,8.9754872 16.0956784,8.7706106 16.0408374,8.5669043 C15.5868771,6.88067253 14.5240317,5.47462301 13.0965765,4.60824809 C11.6781879,3.74737602 10.0109844,3.48663122 8.42199035,3.91039763 C6.8329963,4.33416405 5.52014443,5.3896553 4.72425467,6.84104993 C4.61889044,7.03319347 4.52326493,7.23122295 4.43781835,7.43427738 C4.26336651,7.84884306 3.78428477,8.04415918 3.36775933,7.87052815 C2.95123388,7.69689711 2.75499445,7.22006946 2.92944629,6.80550377 C3.03656085,6.55095775 3.15652188,6.30253218 3.28880736,6.06129471 C4.2954472,4.22557359 5.97003507,2.87925807 7.99873698,2.33822663 C10.0274389,1.79719519 12.1540145,2.12978418 13.9479897,3.21861352 Z"></path>
                    </g>
                </g>
            </g>
        </g>
    </g>
</svg>