<?xml version="1.0" encoding="UTF-8"?>
<svg width="20px" height="20px" viewBox="0 0 20 20" version="1.1" xmlns="http://www.w3.org/2000/svg" xmlns:xlink="http://www.w3.org/1999/xlink">
    <title>Icon/pic_preview</title>
    <defs>
        <path d="M7.65,0 C11.8749783,0 15.3,3.42502166 15.3,7.65 C15.3,9.43794601 14.6866291,11.0826316 13.6588309,12.3851132 L17.7363961,16.4636039 C18.087868,16.8150758 18.087868,17.3849242 17.7363961,17.7363961 C17.3849242,18.087868 16.8150758,18.087868 16.4636039,17.7363961 L12.3851132,13.6588309 C11.0826316,14.6866291 9.43794601,15.3 7.65,15.3 C3.42502166,15.3 0,11.8749783 0,7.65 C0,3.42502166 3.42502166,0 7.65,0 Z M7.65,1.8 C4.41913421,1.8 1.8,4.41913421 1.8,7.65 C1.8,10.8808658 4.41913421,13.5 7.65,13.5 C9.24794985,13.5 10.6962591,12.8593126 11.7520616,11.8208039 L11.7836039,11.7836039 C11.7953833,11.7718245 11.807408,11.7604399 11.8196615,11.74945 C12.8593126,10.6962591 13.5,9.24794985 13.5,7.65 C13.5,4.41913421 10.8808658,1.8 7.65,1.8 Z M7.65,4.5 C8.14705627,4.5 8.55,4.90294373 8.55,5.4 L8.55,6.749 L9.9,6.75 C10.3970563,6.75 10.8,7.15294373 10.8,7.65 C10.8,8.14705627 10.3970563,8.55 9.9,8.55 L8.55,8.549 L8.55,9.9 C8.55,10.3970563 8.14705627,10.8 7.65,10.8 C7.15294373,10.8 6.75,10.3970563 6.75,9.9 L6.75,8.549 L5.4,8.55 C4.90294373,8.55 4.5,8.14705627 4.5,7.65 C4.5,7.15294373 4.90294373,6.75 5.4,6.75 L6.75,6.749 L6.75,5.4 C6.75,4.90294373 7.15294373,4.5 7.65,4.5 Z" id="path-1"></path>
    </defs>
    <g id="UIKIT" stroke="none" stroke-width="1" fill="none" fill-rule="evenodd">
        <g transform="translate(-848, -389)" id="Icon/global/large">
            <g transform="translate(849, 390)" id="Group">
                <mask id="mask-2" fill="white">
                    <use xlink:href="#path-1"></use>
                </mask>
                <use id="Combined-Shape" fill="#FFFFFF" xlink:href="#path-1"></use>
            </g>
        </g>
    </g>
</svg>